<svg height="48" viewBox="0 0 48 48" width="48" xmlns="http://www.w3.org/2000/svg"><g fill="none" fill-rule="evenodd"><path d="m6 10h36c1.6568542 0 3 1.3431458 3 3v22c0 1.6568542-1.3431458 3-3 3h-36c-1.65685425 0-3-1.3431458-3-3v-22c0-1.6568542 1.34314575-3 3-3z" fill="#fff"/><path d="m37 32v2h-11v-2zm-18-15c.5522847 0 1 .4477153 1 1v15c0 .5522847-.4477153 1-1 1h-11c-.55228475 0-1-.4477153-1-1v-15c0-.5522847.44771525-1 1-1zm22 11v2h-15v-2zm0-4v2h-15v-2z" fill="#006ec8"/><path d="m42 9h-36c-2.209139 0-4 1.790861-4 4v22c0 2.209139 1.790861 4 4 4h36c2.209139 0 4-1.790861 4-4v-22c0-2.209139-1.790861-4-4-4zm-36 2h36c1.1045695 0 2 .8954305 2 2v22c0 1.1045695-.8954305 2-2 2h-36c-1.1045695 0-2-.8954305-2-2v-22c0-1.1045695.8954305-2 2-2z" fill="#12395b" fill-rule="nonzero"/></g></svg>