<?xml version="1.0" encoding="UTF-8"?>
<svg id="Layer_2" data-name="Layer 2" xmlns="http://www.w3.org/2000/svg" viewBox="0 0 264 264">
  <defs>
    <style>
      .cls-1 {
        fill: #006ec8;
      }

      .cls-1, .cls-2, .cls-3, .cls-4, .cls-5, .cls-6, .cls-7, .cls-8 {
        stroke-width: 0px;
      }

      .cls-1, .cls-3, .cls-4, .cls-8 {
        fill-rule: evenodd;
      }

      .cls-2 {
        fill: #f3f3f3;
      }

      .cls-3, .cls-5 {
        fill: #fff;
      }

      .cls-4 {
        fill: #99c5e9;
      }

      .cls-6 {
        fill: #fac705;
      }

      .cls-7, .cls-8 {
        fill: #12395b;
      }
    </style>
  </defs>
  <g id="Layer_1-2" data-name="Layer 1">
    <g>
      <rect class="cls-5" width="264" height="264"/>
      <circle class="cls-2" cx="132" cy="132" r="117"/>
      <path class="cls-3" d="M132,243c61.3,0,111-49.7,111-111S193.3,21,132,21,21,70.7,21,132s49.7,111,111,111ZM132,237c57.99,0,105-47.01,105-105S189.99,27,132,27,27,74.01,27,132s47.01,105,105,105Z"/>
      <circle class="cls-6" cx="216" cy="48" r="27"/>
      <path class="cls-7" d="M225.88,36.88l4.24,4.24-17.87,17.87-10.37-10.37,4.24-4.24,6.13,6.13,13.63-13.63Z"/>
      <path class="cls-3" d="M78,87c-4.97,0-9,4.03-9,9v51c0,4.97,4.03,9,9,9h9v12c0,4.97,4.03,9,9,9h90c4.97,0,9-4.03,9-9v-51c0-4.97-4.03-9-9-9h-9v-12c0-4.97-4.03-9-9-9h-90Z"/>
      <path class="cls-4" d="M161.12,127.29c5.54-5.88,5.44-15.14-.31-20.89l-2.12,2.12.29.3c4.39,4.71,4.29,12.08-.29,16.67l2.12,2.12.31-.32ZM156.57,110.64c3.42,3.43,3.51,8.92.26,12.46l-.26.27-2.12-2.12c2.26-2.27,2.34-5.89.23-8.25l-.23-.24,2.12-2.12ZM108,145.5h-27v3h27v-3ZM129,145.5h-15v3h15v-3ZM152.33,114.88c1.11,1.11,1.17,2.88.18,4.06l-.18.19-2.12-2.12,2.12-2.13ZM87,168v-12h81c4.97,0,9-4.03,9-9v-39h9c4.97,0,9,4.03,9,9v51c0,4.97-4.03,9-9,9h-90c-4.97,0-9-4.03-9-9Z"/>
      <path class="cls-1" d="M96,111h-12c-1.66,0-3,1.34-3,3v9c0,1.66,1.34,3,3,3h12c1.66,0,3-1.34,3-3v-9c0-1.66-1.34-3-3-3ZM195,123h-18v12h18v-12ZM96,135h-15v6h15v-6ZM102,135h15v6h-15v-6ZM138,135h-15v6h15v-6ZM144,135h15v6h-15v-6Z"/>
      <path class="cls-8" d="M168,84h-90c-6.63,0-12,5.37-12,12v51c0,6.63,5.37,12,12,12h6v9c0,6.63,5.37,12,12,12h90c6.63,0,12-5.37,12-12v-51c0-6.63-5.37-12-12-12h-6v-9c0-6.63-5.37-12-12-12ZM180,111v36c0,6.63-5.37,12-12,12h-78v9c0,3.31,2.69,6,6,6h90c3.31,0,6-2.69,6-6v-51c0-3.31-2.69-6-6-6h-6ZM78,90h90c3.31,0,6,2.69,6,6v51c0,3.31-2.69,6-6,6h-90c-3.31,0-6-2.69-6-6v-51c0-3.31,2.69-6,6-6Z"/>
    </g>
  </g>
</svg>