<svg id="Layer_1" data-name="Layer 1" xmlns="http://www.w3.org/2000/svg" viewBox="0 0 38 42"><defs><style>.cls-1{fill:#231f20;fill-rule:evenodd;}</style></defs><title>Equal_Housing_Lender</title><path class="cls-1" d="M19.4.81,1.56,11v3.67H4.29V27.25H34.06V14.64h2.78V11.07ZM30.63,24H7.92V11.37L19.4,4.64l11.23,6.74Z"/><polygon class="cls-1" points="13.3 16.2 13.3 13.08 25.17 13.08 25.17 16.2 13.3 16.2 13.3 16.2"/><polygon class="cls-1" points="13.3 17.72 25.17 17.72 25.17 20.84 13.3 20.84 13.3 17.72 13.3 17.72"/><path class="cls-1" d="M21.87,35.76H19.52v5.43h2.3c1.85,0,2.91-.48,2.91-2.61S23.56,35.76,21.87,35.76ZM21.76,40h-1V36.92h1.12a1.5,1.5,0,0,1,1.51,1.65C23.39,39.81,22.71,40,21.76,40Z"/><path class="cls-1" d="M35.56,38.92a1.27,1.27,0,0,0,1.23-1.44c0-1.24-.5-1.72-1.74-1.72H31.8v5.43H33V38.92h1.18l1.29,2.27h1.35Zm-.73-1.16H33v-.82h1.85c.5,0,.73.07.73.41S35.44,37.76,34.82,37.76Z"/><polygon class="cls-1" points="12.76 35.76 12.76 41.19 13.94 41.19 13.94 37.89 16.29 41.19 17.7 41.19 17.7 35.76 16.52 35.76 16.52 39.13 14.16 35.76 12.76 35.76 12.76 35.76"/><polygon class="cls-1" points="1.21 35.76 1.21 41.19 5.64 41.19 5.64 40.02 2.44 39.95 2.44 35.76 1.21 35.76 1.21 35.76"/><polygon class="cls-1" points="6.9 41.19 11.22 41.19 11.22 40.02 8.19 40.02 8.19 38.85 10.71 38.85 10.71 37.75 8.19 37.75 8.19 36.93 11.22 36.93 11.22 35.76 6.9 35.76 6.9 41.19 6.9 41.19"/><polygon class="cls-1" points="26.11 35.76 26.11 41.19 30.37 41.12 30.37 40.02 27.34 40.02 27.34 38.85 29.92 38.85 29.92 37.75 27.34 37.75 27.34 36.93 30.37 36.93 30.37 35.76 26.11 35.76 26.11 35.76"/><path class="cls-1" d="M12.07,29.54h-1L10,34.42h.82l.25-1.1h1l.25,1.1h.87Zm-.84,3,.34-1.92L12,32.51Z"/><path class="cls-1" d="M6.21,33.73a2.93,2.93,0,0,0,.22-1.31v-1c0-1.17-.22-2-1.35-2s-1.34.69-1.34,1.92v1.31c0,1.65.78,1.72,3.08,1.72L6.88,34Zm-.62-1.1c0,.89-.06,1.1-.5,1.1s-.5-.27-.5-1.17V31.4c0-.89.06-1.17.56-1.17s.45.14.45,1.1Z"/><path class="cls-1" d="M26.61,33.11a1.23,1.23,0,0,0,1.29,1.37,1.42,1.42,0,0,0,1.4-1.37c0-1.17-1.79-1.72-1.79-2.47a.42.42,0,0,1,.45-.41c.34,0,.5.28.67.69l.56-.27A1.22,1.22,0,0,0,27.9,29.4a1.16,1.16,0,0,0-1.23,1.24c0,1.37,1.79,1.72,1.79,2.61,0,.34-.17.48-.5.48s-.56-.28-.67-.76l-.67.14Z"/><path class="cls-1" d="M21.88,29.4c-.84,0-1.35.55-1.35,1.86v1.58c0,1.17.28,1.65,1.35,1.65s1.34-.55,1.34-1.86V31.12C23.22,29.88,22.94,29.4,21.88,29.4Zm.5,3.23c0,.82-.17,1.1-.5,1.1s-.5-.34-.5-1V31.19c0-.62.06-1,.5-1s.5.48.5,1Z"/><path class="cls-1" d="M34.1,32.63c0,1.44.34,1.86,1.46,1.86.87,0,1.12-.5,1.12-1V31.88H35.5v.76h.39v.55c0,.41-.11.62-.39.62-.56,0-.62-.48-.62-1.17v-1.1c0-.82.06-1.37.62-1.37.39,0,.62.34.67.82l.56-.27a1.23,1.23,0,0,0-1.29-1.31c-1.12,0-1.34.76-1.34,1.79v1.44Z"/><path class="cls-1" d="M23.57,29.54v2.82c0,1.65.23,2.18,1.41,2.18.9,0,1.23-.6,1.23-2v-3h-.78v2.82c0,1.1-.06,1.37-.5,1.37s-.5-.41-.5-1.44V29.54Z"/><polygon class="cls-1" points="31.06 29.54 31.06 34.42 31.73 34.42 31.73 31.12 32.69 34.42 33.7 34.42 33.7 29.54 33.02 29.54 33.02 32.56 32.13 29.54 31.06 29.54 31.06 29.54"/><path class="cls-1" d="M7.24,29.54v3c0,1.38.11,2,1.23,2,1.29,0,1.34-.76,1.34-2.13V29.54H9v2.89c0,1-.11,1.24-.5,1.24S8,33.39,8,32.29V29.54Z"/><polygon class="cls-1" points="17.43 29.54 17.43 34.42 18.22 34.42 18.22 32.22 19.17 32.22 19.17 34.42 19.95 34.42 19.95 29.54 19.17 29.54 19.17 31.4 18.22 31.4 18.22 29.54 17.43 29.54 17.43 29.54"/><polygon class="cls-1" points="1.15 29.54 1.15 34.42 3.17 34.42 3.17 33.66 1.94 33.66 1.94 32.29 3.06 32.29 3.06 31.6 1.94 31.6 1.94 30.3 3.17 30.3 3.17 29.54 1.15 29.54 1.15 29.54"/><polygon class="cls-1" points="13.54 29.54 13.54 34.42 15.39 34.42 15.39 33.66 14.21 33.66 14.21 29.54 13.54 29.54 13.54 29.54"/><polygon class="cls-1" points="29.71 29.54 29.71 34.42 30.44 34.42 30.44 29.54 29.71 29.54 29.71 29.54"/></svg>