<?xml version="1.0" encoding="UTF-8"?>
<svg width="48px" height="48px" viewBox="0 0 48 48" version="1.1" xmlns="http://www.w3.org/2000/svg" xmlns:xlink="http://www.w3.org/1999/xlink">
    <title>illustration-base/mobile-48/literal/illo-shield+USAA-logo</title>
    <g id="illustration-base/mobile-48/literal/illo-shield+USAA-logo" stroke="none" stroke-width="1" fill="none" fill-rule="evenodd">
        <polygon id="bg" fill="#FFFFFF" points="39 4 39 36.8338096 24 45.8338096 9 36.8338096 9 4"></polygon>
        <path d="M31.8054776,27.3500091 C31.8054776,27.3500091 32.3805376,27.7352452 32.9423208,27.7352452 C33.5066838,27.7352452 34.0024382,27.3321953 34.0024382,27.3321953 L34.0024382,25.3641406 C34.0024382,25.3641406 33.4996772,25.7194464 32.9423208,25.7194464 C32.3860711,25.7194464 31.8054776,25.3340259 31.8054776,25.3340259 L26.0216761,21.927299 L26.5572684,24.2605761 L31.8054776,27.3500091 Z M16.1976972,21.2748972 C16.1976972,21.2748972 15.6392341,20.8878221 15.0567973,20.8878221 C14.4769403,20.8878221 14,21.2916054 14,21.2916054 L14,23.2589267 C14,23.2589267 14.475097,22.9049033 15.0567973,22.9049033 C15.6399745,22.9049033 16.1976972,23.2927117 16.1976972,23.2927117 L20.9722824,26.1028549 L21.3798776,24.3266869 L16.1976972,21.2748972 Z M31.8054776,24.7760068 C31.8054776,24.7760068 32.3805376,25.161243 32.9423208,25.161243 C33.5066838,25.161243 34.0024382,24.7583773 34.0024382,24.7583773 L34.0024382,22.7901383 C34.0024382,22.7901383 33.4996772,23.1454441 32.9423208,23.1454441 C32.3860711,23.1454441 31.8054776,22.7600237 31.8054776,22.7600237 L25.338536,18.9511681 L25.8744984,21.2844452 L31.8054776,24.7760068 Z M16.1976972,18.7007069 C16.1976972,18.7007069 15.6392341,18.3138161 15.0567973,18.3138161 C14.4769403,18.3138161 14,18.7170503 14,18.7170503 L14,20.685105 C14,20.685105 14.475097,20.3305325 15.0567973,20.3305325 C15.6399745,20.3305325 16.1976972,20.7185252 16.1976972,20.7185252 L21.4927509,23.835132 L21.8999759,22.0589639 L16.1976972,18.7007069 Z M31.8054776,22.2021851 C31.8054776,22.2021851 32.3805376,22.5876055 32.9423208,22.5876055 C33.5066838,22.5876055 34.0024382,22.1843713 34.0024382,22.1843713 L34.0024382,20.2157675 C34.0024382,20.2157675 33.4996772,20.5714419 32.9423208,20.5714419 C32.3860711,20.5714419 31.8054776,20.1858372 31.8054776,20.1858372 L24.6561362,15.974665 L25.1913583,18.3084911 L31.8054776,22.2021851 Z M16.1976972,16.1267046 C16.1976972,16.1267046 15.6392341,15.7399981 15.0567973,15.7399981 C14.4769403,15.7399981 14,16.1430481 14,16.1430481 L14,18.1109185 C14,18.1109185 14.475097,17.7561617 15.0567973,17.7561617 C15.6399745,17.7561617 16.1976972,18.1443386 16.1976972,18.1443386 L22.012853,21.5675933 L22.4208183,19.7910567 L16.1976972,16.1267046 Z M24.5085921,15.3334583 L31.8054776,19.6278143 C31.8054776,19.6278143 32.3805376,20.013419 32.9423208,20.013419 C33.5066838,20.013419 34.0024382,19.6101848 34.0024382,19.6101848 L34.0024382,17.641581 C34.0024382,17.641581 33.4996772,17.9978082 32.9423208,17.9978082 C32.3860711,17.9978082 31.8054776,17.611835 31.8054776,17.611835 L26.1607367,14.2873666 L25.7701086,12.796178 C25.7701086,12.7348469 25.826177,12.7045518 25.847571,12.7001444 L26.8044053,12.3980882 C26.9312958,12.3980882 27.0050678,12.5093634 27.0050678,12.6046637 L27.0567093,12.7096963 C27.0906435,12.7280591 27.2455682,12.6816011 27.2455682,12.6520393 L27.2455682,12.0644508 C27.2492585,11.6760934 26.940886,11.3297828 26.5200103,11.3297828 L25.5642827,11.3297828 C25.5642827,11.3297828 25.424852,11 25.0191002,11 L23.2057609,11 C22.7258668,11 22.6100435,11.4550135 22.6100435,11.4550135 L21.3511068,16.5877839 L16.1976972,13.5526986 C16.1976972,13.5526986 15.6392341,13.1656236 15.0567973,13.1656236 C14.4769403,13.1656236 14,13.5694068 14,13.5694068 L14,15.5369087 C14,15.5369087 14.475097,15.1825205 15.0567973,15.1825205 C15.6399745,15.1825205 16.1976972,15.5703289 16.1976972,15.5703289 L22.5336879,19.2996786 L23.97632,13.0117487 L24.5085921,15.3334583 Z M23.3606818,32.5799149 C23.3606818,33.6500592 22.4849963,34.4269621 21.2788079,34.4293501 C20.0091742,34.4269621 19.5849784,34.2130423 19.5849784,34.2130423 L19.4772685,33.0268469 C19.4772685,33.0268469 20.1832756,33.4987529 21.2205223,33.4987529 C21.5097104,33.4987529 22.1600194,33.2949339 22.1600194,32.7086316 C22.1600194,32.1528086 21.6484046,31.9816728 21.5222507,31.9118992 C21.2706832,31.7774891 20.9682144,31.6434437 20.7199708,31.520052 C20.249667,31.2903416 19.5613673,30.8500169 19.5613673,29.9148355 C19.5613673,28.5677894 20.7712422,28.0755012 21.7314005,28.0755012 C22.5038028,28.0755012 23.1806691,28.4142831 23.1806691,28.4142831 L23.1806691,29.519318 C22.9652529,29.3916994 22.6111426,28.9967309 21.7314005,28.9967309 C21.1305197,28.9967309 20.7243977,29.3149462 20.7243977,29.7587607 C20.7243977,30.1733782 21.0655976,30.4414652 21.3931506,30.5942382 C21.7207035,30.7506853 21.9405465,30.8500244 22.3190007,31.0338296 C22.7985321,31.2703278 23.3606818,31.7580244 23.3606818,32.5799149 Z M17.675,32.0723851 C17.675,32.5659595 17.511962,33.4899418 16.3865561,33.471579 C15.3625862,33.4495458 15.1718841,32.5101376 15.1718841,31.90639 L15.1718841,28.1924661 L14,28.1924661 L14,31.9647841 C14,34.0878155 15.2998813,34.44 16.3865561,34.44 C17.9936993,34.44 18.7384376,33.3805056 18.7384376,31.9427509 L18.7384376,28.1924661 L17.675,28.1924661 L17.675,32.0723851 Z M34.0024345,34.3037547 L32.7232106,34.3037547 L32.3554533,33.2303048 L30.1732501,33.2303048 L29.8029093,34.3037547 L27.6218127,34.3037547 L27.2581122,33.2303048 L25.0751686,33.2303048 L24.7040912,34.3037547 L23.5524943,34.3037547 L25.6635091,28.6673128 L25.4584198,28.1917328 L26.7358004,28.1917328 L28.7800499,33.9537738 L30.7601175,28.6673128 L30.5579782,28.1917328 L31.8320387,28.1917328 L34.0024345,34.3037547 Z M26.9667068,32.376645 L26.2101648,29.9690027 L25.3595635,32.376645 L26.9667068,32.376645 Z M32.0651584,32.376645 L31.3067732,29.9690027 L30.462442,32.376645 L32.0651584,32.376645 Z M34.3071166,28.4730382 C34.0968639,28.5859643 33.9327191,28.7479206 33.8146824,28.9583506 C33.6966456,29.1687806 33.6376272,29.3882096 33.6376272,29.6166339 C33.6376272,29.8426703 33.695909,30.0600799 33.8120988,30.268859 C33.9282885,30.4776381 34.09059,30.6395906 34.2993696,30.7549046 C34.5077791,30.8704029 34.7257789,30.9280599 34.9537352,30.9280599 C35.1816916,30.9280599 35.3996913,30.8704029 35.6081008,30.7549046 C35.8168767,30.6395906 35.9791782,30.4776381 36.0946352,30.268859 C36.2100921,30.0600799 36.268,29.842674 36.268,29.6166339 C36.268,29.3882096 36.2093518,29.1687806 36.0920516,28.9583506 C35.9747514,28.7479206 35.8109768,28.585968 35.6003538,28.4730382 C35.3901011,28.3599279 35.1743148,28.303557 34.9537352,28.303557 C34.7331557,28.303557 34.5173694,28.3599279 34.3071166,28.4730382 Z M35.4922813,28.6625369 C35.6678595,28.7571001 35.8047104,28.8922473 35.9028264,29.0677906 C36.0013125,29.2435181 36.050004,29.4264019 36.050004,29.6166339 C36.050004,29.8055798 36.0020528,29.9868165 35.9054099,30.1601523 C35.8087671,30.3334881 35.6737633,30.4686353 35.4992879,30.5654059 C35.3248164,30.6623571 35.1433344,30.7106503 34.9537352,30.7106503 C34.7641361,30.7106503 34.5826579,30.6623571 34.4081825,30.5654059 C34.233711,30.4686391 34.0979668,30.3334918 34.001324,30.1601523 C33.9039446,29.9868128 33.8556232,29.8055798 33.8556232,29.6166339 C33.8556232,29.4264019 33.9050513,29.2435143 34.0039076,29.0677906 C34.1023937,28.8922473 34.2396109,28.7571039 34.4144526,28.6625369 C34.5892944,28.5679699 34.7689331,28.5209666 34.9537315,28.5209666 C35.1374344,28.5209666 35.3166992,28.5679699 35.4922813,28.6625369 Z M34.6051623,30.3417538 L34.6051623,29.7418645 L34.7394296,29.7418645 C34.8194717,29.7418645 34.8807035,29.7582079 34.9223884,29.7905225 C34.9828837,29.8345926 35.0621893,29.9442131 35.1610456,30.1192035 L35.2864592,30.3417538 L35.5653205,30.3417538 L35.3930624,30.0654048 C35.3104367,29.9344845 35.2407213,29.8410194 35.1839164,29.7853818 C35.1536687,29.756369 35.1134645,29.7313989 35.0636662,29.7104638 C35.1853932,29.7012843 35.2835092,29.658316 35.3572812,29.5819276 C35.4310532,29.5051745 35.4679411,29.4155677 35.4679411,29.3123703 C35.4679411,29.2391069 35.4458107,29.1702472 35.4015459,29.1052458 C35.3576514,29.0402444 35.2982628,28.9948882 35.2237542,28.9686319 C35.149612,28.9425562 35.0293619,28.9295221 34.8630037,28.9295221 L34.3768395,28.9295221 L34.3768395,30.3417538 L34.6051623,30.3417538 Z M34.6051623,29.1210402 L34.8648432,29.1210402 C34.9766098,29.1210402 35.0525953,29.1291179 35.09391,29.145277 C35.1352248,29.1614362 35.1676821,29.1862258 35.190923,29.2190932 C35.2141602,29.2521448 35.2259639,29.2896038 35.2259639,29.3314702 C35.2259639,29.3962873 35.20162,29.4486193 35.1532986,29.4879172 C35.1049772,29.5272152 35.0149746,29.5470446 34.8821842,29.5470446 L34.6051623,29.5470446 L34.6051623,29.1210402 L34.6051623,29.1210402 Z" id="shapes" fill="#006EC8"></path>
        <path d="M40,3 L40,37.4 L24,47 L8,37.4 L8,3 L40,3 Z M38,5 L10,5 L10,36.268 L24,44.668 L38,36.268 L38,5 Z" id="strokes" fill="#12395B" fill-rule="nonzero"></path>
    </g>
</svg>