<?xml version="1.0" encoding="UTF-8"?>
<svg width="48px" height="48px" viewBox="0 0 48 48" version="1.1" xmlns="http://www.w3.org/2000/svg" xmlns:xlink="http://www.w3.org/1999/xlink">
    <title>illustration-base/mobile-48/literal/illo-document+shield</title>
    <g id="illustration-base/mobile-48/literal/illo-document+shield" stroke="none" stroke-width="1" fill="none" fill-rule="evenodd">
        <path d="M34,7 L34,21 L41,21 L41,38.1661904 L33,43 L29.69,41 L8,41 L8,7 L34,7 Z" id="bg" fill="#FFFFFF"></path>
        <path d="M16,32 L16,34 L12,34 L12,32 L16,32 Z M20,28 L20,30 L12,30 L12,28 L20,28 Z M20,24 L20,26 L12,26 L12,24 L20,24 Z M15,10.5 C16.9329966,10.5 18.5,12.0670034 18.5,14 C18.5,15.9329966 16.9329966,17.5 15,17.5 C13.0670034,17.5 11.5,15.9329966 11.5,14 C11.5,12.0670034 13.0670034,10.5 15,10.5 Z M27,15 L27,17 L21,17 L21,15 L27,15 Z M30,11 L30,13 L21,13 L21,11 L30,11 Z" id="shapes" fill="#006EC8"></path>
        <path d="M35,6 L35,20 L42,20 L42,38.7303345 L33,44.1683704 L29.412,42 L7,42 L7,6 L35,6 Z M40,22 L26,22 L26,37.602 L33,41.831 L40,37.601 L40,22 Z M33,20 L33,8 L9,8 L9,40 L26.102,40 L24,38.7303345 L24,20 L33,20 Z" id="strokes" fill="#12395B" fill-rule="nonzero"></path>
    </g>
</svg>