<?xml version="1.0" encoding="UTF-8"?>
<svg width="48px" height="48px" viewBox="0 0 48 48" version="1.1" xmlns="http://www.w3.org/2000/svg" xmlns:xlink="http://www.w3.org/1999/xlink">
    <title>illustration-base/mobile-48/literal/illo-dog-tag</title>
    <g id="illustration-base/mobile-48/literal/illo-dog-tag" stroke="none" stroke-width="1" fill="none" fill-rule="evenodd">
        <path d="M29.5,9.5 C30.6045695,9.5 31.5,10.3954305 31.5,11.5 C31.5,12.1282872 31.2102908,12.6889093 30.7571727,13.0555659 L35,15.6 L35,41.4 L30.1739491,44.2956306 C26.3737604,46.5757437 21.6262396,46.5757437 17.8260509,44.2956306 L13,41.4 L13,15.6 L17.2428273,13.0555659 C16.7897092,12.6889093 16.5,12.1282872 16.5,11.5 C16.5,10.3954305 17.3954305,9.5 18.5,9.5 C19.6045695,9.5 20.5,10.3954305 20.5,11.5 C20.5,11.5057284 20.4999759,11.5114512 20.4999278,11.5171682 C22.7802443,10.8203143 25.2207986,10.8204156 27.5016755,11.5161953 L27.5,11.5 C27.5,10.3954305 28.3954305,9.5 29.5,9.5 Z M16,2 C17.1045695,2 18,2.8954305 18,4 C18,5.1045695 17.1045695,6 16,6 C14.8954305,6 14,5.1045695 14,4 C14,2.8954305 14.8954305,2 16,2 Z M32,2 C33.1045695,2 34,2.8954305 34,4 C34,5.1045695 33.1045695,6 32,6 C30.8954305,6 30,5.1045695 30,4 C30,2.8954305 30.8954305,2 32,2 Z" id="bg" fill="#FFFFFF"></path>
        <path d="M25.5,30 L25.5,42 L22.5,42 L22.5,30 L25.5,30 Z M31,22 L31,39 L28,39 L28,22 L31,22 Z M20,34.5 L20,38 L17,38 L17,34.5 L20,34.5 Z M20,22 L20,32.5 L17,32.5 L17,22 L20,22 Z M25.5,22 L25.5,27.5 L22.5,27.5 L22.5,22 L25.5,22 Z" id="shapes" fill="#006EC8"></path>
        <path d="M32,1 C33.6568542,1 35,2.34314575 35,4 C35,5.63869878 33.6861288,6.97052651 32.054352,6.99951753 L31.3428146,9.13254304 C32.0470777,9.68152201 32.5,10.5378682 32.5,11.5 C32.5,11.9523648 32.3998774,12.3813447 32.2205836,12.7659884 L36,15.0338096 L36,41.9661904 L30.6884448,45.1531235 C26.6744956,47.561493 21.6849422,47.6217023 17.6222127,45.3337512 L17.3115552,45.1531235 L12,41.9661904 L12,15.0338096 L15.7794164,12.7659884 C15.6001226,12.3813447 15.5,11.9523648 15.5,11.5 C15.5,10.5378682 15.9529223,9.68152201 16.6571854,9.13254304 L15.9449557,6.99950515 C14.3134996,6.97014982 13,5.63846705 13,4 C13,2.34314575 14.3431458,1 16,1 C17.6568542,1 19,2.34314575 19,4 C19,4.96213183 18.5470777,5.81847799 17.8428146,6.36745696 L18.554352,8.50048247 C19.7569958,8.52184929 20.7869561,9.25090518 21.2455084,10.2889255 C23.0597162,9.89591252 24.9402838,9.89591252 26.7556008,10.2894006 C27.2129559,9.25110436 28.242609,8.52212908 29.4449557,8.50049485 L30.1571854,6.36745696 C29.4529223,5.81847799 29,4.96213183 29,4 C29,2.34314575 30.3431458,1 32,1 Z M24,11.9942845 C22.1717399,11.9942845 20.3434798,12.4494627 18.6917276,13.359819 L18.3405467,13.5618624 L14,16.1661904 L14,40.8338096 L18.3405467,43.4381376 C20.0822998,44.4831895 22.0411499,45.0057155 24,45.0057155 C25.8282601,45.0057155 27.6565202,44.5505373 29.3082724,43.640181 L29.6594533,43.4381376 L34,40.8338096 L34,16.1661904 L30.7610206,14.2228937 C30.3776526,14.4007372 29.9504183,14.5 29.5,14.5 C29.0371241,14.5 28.5987325,14.3951705 28.2072712,14.2079575 L26.7079575,15.7072712 C26.8951705,16.0987325 27,16.5371241 27,17 C27,18.6568542 25.6568542,20 24,20 C22.3431458,20 21,18.6568542 21,17 C21,15.3431458 22.3431458,14 24,14 C24.4628759,14 24.9012675,14.1048295 25.2927288,14.2920425 L26.7920425,12.7927288 C26.7183655,12.6386705 26.6574479,12.4773438 26.6106579,12.3101167 C25.754123,12.0990373 24.8770615,11.9942845 24,11.9942845 Z M24,16 C23.4477153,16 23,16.4477153 23,17 C23,17.5522847 23.4477153,18 24,18 C24.5522847,18 25,17.5522847 25,17 C25,16.4477153 24.5522847,16 24,16 Z M29.5,10.5 C28.9477153,10.5 28.5,10.9477153 28.5,11.5 C28.5,12.0522847 28.9477153,12.5 29.5,12.5 C30.0522847,12.5 30.5,12.0522847 30.5,11.5 C30.5,10.9477153 30.0522847,10.5 29.5,10.5 Z M18.5,10.5 C17.9477153,10.5 17.5,10.9477153 17.5,11.5 C17.5,11.5764541 17.5085798,11.6509042 17.5248291,11.7224402 L17.3115552,11.8468765 C17.9471751,11.4655046 18.6072589,11.1430141 19.2842524,10.8794052 C19.1017785,10.648667 18.8182508,10.5 18.5,10.5 Z M16,3 C15.4477153,3 15,3.44771525 15,4 C15,4.55228475 15.4477153,5 16,5 C16.5522847,5 17,4.55228475 17,4 C17,3.44771525 16.5522847,3 16,3 Z M32,3 C31.4477153,3 31,3.44771525 31,4 C31,4.55228475 31.4477153,5 32,5 C32.5522847,5 33,4.55228475 33,4 C33,3.44771525 32.5522847,3 32,3 Z" id="strokes" fill="#12395B" fill-rule="nonzero"></path>
    </g>
</svg>