<?xml version="1.0" encoding="UTF-8"?>
<svg width="48px" height="48px" viewBox="0 0 48 48" version="1.1" xmlns="http://www.w3.org/2000/svg" xmlns:xlink="http://www.w3.org/1999/xlink">
    <title>illustration-base/mobile-48/literal/illo-document+$</title>
    <g id="illustration-base/mobile-48/literal/illo-document+$" stroke="none" stroke-width="1" fill="none" fill-rule="evenodd">
        <polygon id="bg" fill="#FFFFFF" points="41 7 41 41 7 41 7 7"></polygon>
        <path d="M37,35 L37,37 L11,37 L11,35 L37,35 Z M37,31 L37,33 L11,33 L11,31 L37,31 Z M20,27 L20,29 L11,29 L11,27 L20,27 Z M37,11 L37,29 L22,29 L22,11 L37,11 Z M30.625,12.5 L28.625,12.5 L28.6249066,14.1404624 C27.0902461,14.5243893 26.0722265,15.6673093 25.9900558,17.2212005 L25.9846797,17.426184 L25.9846797,17.45961 L25.9895812,17.6698804 C26.0776036,19.5213106 27.3456029,20.2793476 29.3440111,21.052925 C30.9426547,21.6604096 31.3179884,22.0232324 31.3476041,22.5655624 L31.3495822,22.640669 L31.3495822,22.657382 L31.3437243,22.7759997 C31.2814575,23.3960544 30.7262822,23.810585 29.8454039,23.810585 C28.7534819,23.810585 27.8508264,23.2573447 27.0966722,22.6264565 L26.9373259,22.490251 L25.5,24.278552 L25.738471,24.4912013 C26.5428231,25.1747754 27.4391332,25.6070473 28.351476,25.8259799 L28.6255839,25.8852975 L28.625,27.5 L30.625,27.5 L30.6258256,25.942005 C32.4121758,25.6736653 33.6642538,24.4887291 33.7514094,22.6923495 L33.7562674,22.490251 L33.7562674,22.456825 L33.7513817,22.250803 C33.6700318,20.5683444 32.5747804,19.7351615 30.6142061,18.963788 C28.8683844,18.2430359 28.4272574,17.9213674 28.3935278,17.3074213 L28.3913649,17.225627 L28.3913649,17.208914 L28.3973875,17.0983122 C28.4573686,16.5566464 28.9616992,16.189415 29.7451253,16.189415 C30.5782087,16.189415 31.3685698,16.6023965 32.0636275,17.1391629 L32.235376,17.275766 L33.5891365,15.437326 L33.371509,15.2499629 C32.6420096,14.6537012 31.8026252,14.275276 30.9208116,14.1050507 L30.6253948,14.0560068 L30.625,12.5 Z M20,23 L20,25 L11,25 L11,23 L20,23 Z M20,19 L20,21 L11,21 L11,19 L20,19 Z M20,15 L20,17 L11,17 L11,15 L20,15 Z M20,11 L20,13 L11,13 L11,11 L20,11 Z" id="shapes" fill="#006EC8"></path>
        <path d="M42,6 L6,6 L6,42 L42,42 L42,6 Z M40,8 L40,40 L8,40 L8,8 L40,8 Z" id="strokes" fill="#12395B" fill-rule="nonzero"></path>
    </g>
</svg>