<?xml version="1.0" encoding="UTF-8"?><svg width="48" height="48" viewBox="0 0 48 48" xmlns="http://www.w3.org/2000/svg"><g fill="none" fill-rule="evenodd"><path d="M0 0h48v48H0z"/><path fill="#FFF" d="M24 3.8 41 14v27l-16.1003-.0012A5 5 0 0 1 25 42c0 .3425-.0344.677-.1 1.0002L3.0618 43A8.1 8.1 0 0 1 3 42c0-2.961 1.6087-5.5464 3.9998-6.9296L7 14l6-3.601V5h4v3z"/><path fill="#006EC8" d="M24 13c5.799 0 10.5 4.701 10.5 10.5S29.799 34 24 34s-10.5-4.701-10.5-10.5S18.201 13 24 13m1 3h-2v1.6405c-1.6015.4006-2.6403 1.6276-2.6403 3.2857v.0334l.0049.2103c.088 1.8514 1.356 2.6094 3.3544 3.383 1.6713.6351 2.0056 1.0028 2.0056 1.5878v.0167l-.0059.1186c-.0622.62-.6174 1.0346-1.4983 1.0346-1.17 0-2.1226-.6351-2.908-1.3203l-1.4374 1.7883.2385.2126c.8848.752 1.8808 1.1998 2.887 1.3941L23 31h2l.0008-1.558c1.8525-.2783 3.1305-1.5423 3.1305-3.4517v-.0335l-.005-.206c-.0813-1.6825-1.1765-2.5156-3.137-3.287-1.8218-.7521-2.223-1.0696-2.223-1.7382v-.0167l.006-.1106c.06-.5417.5644-.9089 1.3478-.9089.9025 0 1.7549.4847 2.4903 1.0864l1.3537-1.8385-.2176-.1873c-.8105-.6626-1.7568-1.0561-2.7461-1.194z"/><path fill="#12395B" fill-rule="nonzero" d="m24 2.6338 20.5145 12.3087-1.029 1.715L42 15.7658V42H26v2H2v-2c0-3.1203 1.588-5.8698 3.9998-7.4843L6 15.7648l-1.4855.8927-1.029-1.715L12 9.8328V4h6v2.2328zM11 35c-3.866 0-7 3.134-7 7h20c0-2.2091-1.7909-4-4-4a3.98 3.98 0 0 0-2.665 1.0183C16.2154 36.6435 13.7996 35 11 35M24 4.966 8 14.5648l.0004 18.9472a8.97 8.97 0 0 1 2.7342-.5082L11 33c2.7145 0 5.2102 1.2133 6.886 3.2033l.114.1397.1044-.0368a6 6 0 0 1 1.6163-.2998L20 36c2.612 0 4.834 1.669 5.6581 3.9986L40 39.999V14.5658zM16 6h-2v2.6328l2-1.2z"/></g></svg>