<?xml version="1.0" encoding="UTF-8"?><svg width="48" height="48" viewBox="0 0 48 48" xmlns="http://www.w3.org/2000/svg"><g fill="none" fill-rule="evenodd"><path d="M0 0h48v48H0z"/><path fill="#FFF" d="M36 35h.764A3.618 3.618 0 0 0 40 33V10.5324a2 2 0 0 0-.971-1.715L31 4l-.4472-.8944A2 2 0 0 0 28.7639 2h-9.5278a2 2 0 0 0-1.7889 1.1056L17 4 8.971 8.8174A2 2 0 0 0 8 10.5324V33a3.618 3.618 0 0 0 3.236 2H12v9l.5355.5355A5 5 0 0 0 16.0711 46h15.8578a5 5 0 0 0 3.5356-1.4645L36 44z"/><path fill="#006EC8" d="M24 39c.5523 0 1 .4477 1 1s-.4477 1-1 1-1-.4477-1-1 .4477-1 1-1m0-7c.5523 0 1 .4477 1 1s-.4477 1-1 1-1-.4477-1-1 .4477-1 1-1m0-7c.5523 0 1 .4477 1 1s-.4477 1-1 1-1-.4477-1-1 .4477-1 1-1m7-9-.001 2.5H33.5v3h-2.501L31 24h-3l-.001-2.5H25.5v-3h2.499L28 16z"/><path fill="#12395B" fill-rule="nonzero" d="M28.764 1a3 3 0 0 1 1.5771.448c.4653.2876.852.7022 1.1061 1.2104l.317.634 7.7793 4.6675A3 3 0 0 1 41 10.5324V33.221a4.615 4.615 0 0 1-1.8082 2.0892A4.614 4.614 0 0 1 36.7639 36L37 35.992v8.4222l-.8284.8284A6 6 0 0 1 31.9289 47H16.0711a6 6 0 0 1-4.2427-1.7574L11 44.4142l-.0002-8.4202a4.614 4.614 0 0 1-2.1916-.6837A4.615 4.615 0 0 1 7 33.2211V10.5324a3 3 0 0 1 1.4565-2.5725l7.7793-4.6676.317-.634a3 3 0 0 1 1.106-1.2103A3 3 0 0 1 19.2362 1Zm0 2h-9.528a.999.999 0 0 0-.8944.5528l-.5774 1.1549-8.2787 4.9672A1 1 0 0 0 9 10.5324v22.2113a2.616 2.616 0 0 0 .8597.8653c.341.2108.7304.3433 1.1402.3804L11 23.3105a39 39 0 0 0-.5306-6.4116l-.4558-2.7345 1.9728-.3288.4558 2.7345A41 41 0 0 1 13 23.3105v20.2753C13.9928 44.5786 15.0102 45 16.071 45h15.858c1.0608 0 2.0782-.4214 3.071-1.4142V23.3105a41 41 0 0 1 .5578-6.7404l.4558-2.7345 1.9728.3288-.4558 2.7345A39 39 0 0 0 37 23.3105l.0011 10.6788a2.616 2.616 0 0 0 1.1392-.3803A2.616 2.616 0 0 0 39 32.7437V10.5324a1 1 0 0 0-.4855-.8575l-8.2787-4.9672-.5774-1.155A.999.999 0 0 0 28.7639 3M20.5 29v2H15v-2zM30.7929 6.7929 32.207 8.207l-.9901.9899 1.0916 2.184-7.3376 4.4026a2 2 0 0 0-.971 1.715V21h-2v-3.5014a4 4 0 0 1 1.942-3.43l5.749-3.4496-.9078-1.8165zm-13.5858 0 2.0097 2.0096-.9088 1.8165 4.2788 2.5667a5.5 5.5 0 0 0-1.3329 1.5335l-5.5625-3.3381L16.782 9.197l-.9891-.9899z"/></g></svg>