<?xml version="1.0" encoding="UTF-8"?><svg width="48" height="48" viewBox="0 0 48 48" xmlns="http://www.w3.org/2000/svg"><g fill="none" fill-rule="evenodd"><path d="M0 0h48v48H0z"/><path fill="#FFF" d="M24 3.8 41 14v27l-16.1003-.0012A5 5 0 0 1 25 42c0 .3425-.0344.677-.1 1.0002L3.0618 43A8.1 8.1 0 0 1 3 42c0-2.961 1.6087-5.5464 3.9998-6.9296L7 14l6-3.601V5h4v3z"/><path fill="#006EC8" d="M31.9997 27c2.2092 0 4 1.7909 4 4v10h-8V31c0-2.2091 1.791-4 4-4M27 13v6h-6v-6z"/><path fill="#12395B" fill-rule="nonzero" d="m24 2.6338 20.5145 12.3087-1.029 1.715L42 15.7658V42H26v2H2v-2c0-3.1203 1.588-5.8698 3.9998-7.4843L6 15.7648l-1.4855.8927-1.029-1.715L12 9.8328V4h6v2.2328zM11 35c-3.866 0-7 3.134-7 7h20c0-2.2091-1.7909-4-4-4a3.98 3.98 0 0 0-2.665 1.0183C16.2154 36.6435 13.7996 35 11 35M24 4.966 8 14.5648l.0004 18.9472a8.97 8.97 0 0 1 2.7342-.5082L11 33c2.7145 0 5.2102 1.2133 6.886 3.2033l.114.1397.1044-.0368a6 6 0 0 1 1.6163-.2998L20 36c2.612 0 4.834 1.669 5.6581 3.9986L40 39.999V14.5658zM16 6h-2v2.6328l2-1.2z"/></g></svg>