<?xml version="1.0" encoding="UTF-8"?><svg width="48" height="48" viewBox="0 0 48 48" xmlns="http://www.w3.org/2000/svg"><g fill="none" fill-rule="evenodd"><path d="M0 0h48v48H0z"/><path fill="#FFF" d="M45 10v22h-2v3.5h-2V39H7v-3.5H5V32H3V10z"/><path fill="#006EC8" d="M24 12c4.9706 0 9 4.0294 9 9s-4.0294 9-9 9-9-4.0294-9-9 4.0294-9 9-9m-6.7998.999a10.56 10.56 0 0 0-1.818 2.0007L8 15v12l7.3825.0007a10.56 10.56 0 0 0 1.8177 2.0004L6 29V13zm13.5996 0L42 13v16l-11.2002.001a10.56 10.56 0 0 0 1.8177-2.0003L40 27V15l-7.3822-.0003a10.56 10.56 0 0 0-1.818-2.0007M25 14.5h-2l.0006 1.3404c-1.278.3675-2.1207 1.3564-2.1947 2.6872l-.0053.1924v.0296l.005.2003c.083 1.6304 1.195 2.3003 2.945 2.9838 1.3976.536 1.7304.857 1.759 1.3341l.002.0728v.0148l-.0058.1115c-.0578.546-.5445.9104-1.315.9104-.954 0-1.7434-.4853-2.4036-1.0408l-.15-.1292-1.2622 1.5846.2191.1968c.6573.5612 1.3842.93 2.127 1.1337l.2791.0686L23 27.5h2l.001-1.2549c1.4966-.2725 2.538-1.3023 2.619-2.8426l.005-.1952v-.0296l-.005-.1975c-.0771-1.4808-1.0382-2.2165-2.7541-2.8977-1.527-.6362-1.9173-.9215-1.9497-1.4613l-.0022-.079v-.0147l.006-.1044c.0559-.4765.4978-.799 1.1827-.799.7265 0 1.416.3608 2.0232.8317l.1636.1309 1.1887-1.629-.2197-.1895a4.804 4.804 0 0 0-1.9888-.963l-.2692-.0524z"/><path fill="#12395B" fill-rule="nonzero" d="M46 9v24h-2v3.5h-2V40H6v-3.5H4V33H2V9zm-6 27.5H8V38h32zm2-3.5H6v1.5h36zm2-22H4v20h40z"/></g></svg>