<?xml version="1.0" encoding="UTF-8"?><svg width="48" height="48" viewBox="0 0 48 48" xmlns="http://www.w3.org/2000/svg"><g fill="none" fill-rule="evenodd"><path d="M0 0h48v48H0z"/><path fill="#FFF" d="M36 9c1.6569 0 3 1.3431 3 3v4h3c1.6569 0 3 1.3431 3 3v17c0 1.6569-1.3431 3-3 3H12c-1.6569 0-3-1.3431-3-3v-4H6c-1.6569 0-3-1.3431-3-3V12c0-1.6569 1.3431-3 3-3z"/><path fill="#006EC8" d="M12 25v2H7v-2zm7 0v2h-5v-2zm7 0v2h-5v-2zm7 0v2h-5v-2zm12-4v4h-6v-4zm-33-4c.5523 0 1 .4477 1 1v3c0 .5523-.4477 1-1 1H8c-.5523 0-1-.4477-1-1v-3c0-.5523.4477-1 1-1z"/><path fill="#12395B" fill-rule="nonzero" d="M36 8c2.2091 0 4 1.7909 4 4v3h2c2.1422 0 3.891 1.684 3.9951 3.8004L46 19v17c0 2.1422-1.684 3.891-3.8004 3.9951L42 40H12c-2.1422 0-3.891-1.684-3.9951-3.8004L8 36v-3H6c-2.1422 0-3.891-1.684-3.9951-3.8004L2 29V12c0-2.2091 1.7909-4 4-4Zm4 21c0 2.2091-1.7909 4-4 4H10v3c0 1.0544.8159 1.9182 1.8507 1.9945L12 38h30c1.0544 0 1.9182-.8159 1.9945-1.8507L44 36V19c0-1.0544-.8159-1.9182-1.8507-1.9945L42 17h-2Zm-4-19H6c-1.1046 0-2 .8954-2 2v17c0 1.1046.8954 2 2 2h30c1.1046 0 2-.8954 2-2V12c0-1.1046-.8954-2-2-2"/></g></svg>