<?xml version="1.0" encoding="UTF-8"?><svg width="32" height="32" fill="none" viewBox="0 0 32 32" xmlns="http://www.w3.org/2000/svg"><g clip-path="url(#b02b02ad__a)"><path fill="#0B2237" fill-rule="evenodd" d="M32 16c0-8.837-7.163-16-16-16S0 7.163 0 16s7.163 16 16 16 16-7.163 16-16m-8.854-8-5.829 6.775L23.656 24h-4.662l-4.269-6.212L9.381 24H8l6.112-7.105L8 8h4.662l4.042 5.883L21.764 8zm-7.72 8.974-.62-.886L9.88 9.04H12l3.977 5.688.62.886 5.168 7.393h-2.121z" clip-rule="evenodd"/></g><defs><clipPath id="b02b02ad__a"><path fill="#fff" d="M0 0h32v32H0z"/></clipPath></defs></svg>