<?xml version="1.0" encoding="UTF-8"?><svg width="32" height="32" fill="none" viewBox="0 0 32 32" xmlns="http://www.w3.org/2000/svg"><g clip-path="url(#a761eccf__a)"><path fill="#0B2237" d="M16 0c8.837 0 16 7.163 16 16 0 8.18-6.14 14.925-14.062 15.882V20.89h4.329l.897-4.89H17.94v-1.73c0-2.583 1.013-3.577 3.636-3.577.815 0 1.471.02 1.849.06V6.32c-.716-.199-2.465-.397-3.479-.397-5.346 0-7.811 2.525-7.811 7.97V16h-3.3v4.89h3.299v10.638C5.165 29.8 0 23.503 0 16 0 7.163 7.163 0 16 0"/></g><defs><clipPath id="a761eccf__a"><path fill="#fff" d="M0 0h32v32H0z"/></clipPath></defs></svg>