<?xml version="1.0" encoding="UTF-8"?><svg width="48" height="48" viewBox="0 0 48 48" xmlns="http://www.w3.org/2000/svg"><g fill="none" fill-rule="evenodd"><path d="M0 0h48v48H0z"/><path fill="#FFF" d="m39 9 .2838.1703A9.714 9.714 0 0 1 44 17.5v.5294a12 12 0 0 1-3.5147 8.4853l-1.0077 1.0087q.0223.2353.0224.4766c0 2.7614-2.2386 5-5 5a5 5 0 0 1-.4766-.0224L24 43 7.5147 26.5147A12 12 0 0 1 4 18.0294V17.5a9.714 9.714 0 0 1 4.7162-8.3297L9 9c3.0776-1.8466 6.9224-1.8466 10 0l5 3 5-3c3.0776-1.8466 6.9224-1.8466 10 0"/><path fill="#006EC8" d="m20.847 14.9992 2.477 14.8648.9552-2.864 7.9292-.0008c.386-.8825 1.2668-1.4992 2.2916-1.4992 1.3807 0 2.5 1.1193 2.5 2.5s-1.1193 2.5-2.5 2.5c-1.025 0-1.906-.6169-2.2918-1.4996L25.72 29l-2 5.9992h-1.568L20 22.083l-1.154 6.9162h-1.261L16 27.415 14.4142 29H9v-2h4.584L16 24.5858l1.333 1.3322 1.82-10.9188z"/><path fill="#12395B" fill-rule="nonzero" d="M19.5145 8.1425 24 10.8338l4.4855-2.6913c1.7137-1.0282 3.6428-1.538 5.6102-1.5054 1.919.0318 3.8763.58 5.7026 1.6757A10.714 10.714 0 0 1 45 17.5v.5294a13 13 0 0 1-3.8076 9.1924l-.693.695q.0006.0415.0006.0832c0 3.3137-2.6863 6-6 6l-.082-.0023L24 44.4142 6.8076 27.2218A13 13 0 0 1 3 18.0294V17.5a10.714 10.714 0 0 1 5.2017-9.1872c1.8263-1.0958 3.7836-1.6439 5.7026-1.6757 1.9674-.0325 3.8965.4772 5.6102 1.5054m14.5481.4944a8.52 8.52 0 0 0-4.2478 1.0484l-.3003.1722L24 13.17l-5.5145-3.3125c-1.3893-.8336-2.9531-1.247-4.5481-1.2206-1.5852.0262-3.1993.4864-4.7067 1.3909a8.714 8.714 0 0 0-4.2257 7.1767L5 17.5v.5294a11 11 0 0 0 2.9786 7.5272l.2432.251L24 41.5858l8.0904-8.0893a6.023 6.023 0 0 1-3.046-2.9958l2.3339.0005C32.1113 31.415 33.2373 32 34.5 32c2.2091 0 4-1.7909 4-4s-1.7909-4-4-4c-1.2631 0-2.3895.5854-3.1225 1.4998l-2.3336.0005C29.9919 23.4346 32.0784 22 34.5 22c2.4546 0 4.565 1.474 5.4942 3.5851l-.216.2225a11 11 0 0 0 3.2163-7.4287L43 18.0294V17.5a8.714 8.714 0 0 0-4.2307-7.4722c-1.5074-.9045-3.1215-1.3647-4.7067-1.391"/></g></svg>