<?xml version="1.0" encoding="UTF-8"?><svg width="48" height="48" viewBox="0 0 48 48" xmlns="http://www.w3.org/2000/svg"><g fill="none" fill-rule="evenodd"><path d="M0 0h48v48H0z"/><path fill="#FFF" d="M16 35c0 2.2091-1.7909 4-4 4s-4-1.7909-4-4H5.5l-1-2H2v-8l4.666-14H26l10 10h8c.5523 0 1.0523.2239 1.4142.5858.362.362.5858.862.5858 1.4142v10h-2.5l-1 2H40c0 2.2091-1.7909 4-4 4s-4-1.7909-4-4Z"/><path fill="#006EC8" d="M11.499 13.5V22H5.635l2.833-8.5zm9.001 0V22H13v-8.5zm4.4645 0L33.464 22H22v-8.5z"/><path fill="#12395B" fill-rule="nonzero" d="M16.8997 36.0012C16.436 38.2828 14.4185 40 12 40s-4.436-1.7172-4.8997-3.9988L4.882 36l-1.001-2H1v-9.1623L5.9452 10h20.469L36.415 20H44c1.5977 0 2.9037 1.249 2.995 2.8237L47 23v11h-2.882l-1 2-2.2183.0012C40.436 38.2828 38.4185 40 36 40s-4.436-1.7172-4.8997-3.9988ZM36 32c-1.6569 0-3 1.3431-3 3s1.3431 3 3 3 3-1.3431 3-3-1.3431-3-3-3m-24 0c-1.6569 0-3 1.3431-3 3s1.3431 3 3 3 3-1.3431 3-3-1.3431-3-3-3m13.585-20H7.386L3 25.16V32h2.118l1 2 .982-.0002C7.5635 31.7177 9.5812 30 12 30s4.4366 1.7177 4.9 3.9998h14.2C31.5635 31.7177 33.5812 30 36 30s4.4366 1.7177 4.9 3.9998l.981.0002 1.001-2H45v-9c0-.5523-.4477-1-1-1h-8.4142z"/></g></svg>