<?xml version="1.0" encoding="UTF-8"?><svg width="32" height="32" fill="none" viewBox="0 0 32 32" xmlns="http://www.w3.org/2000/svg"><g fill="#0B2237" clip-path="url(#64a77bca__a)"><path d="M14.846 13.23a3.004 3.004 0 0 1 4.095 2.178A3.002 3.002 0 0 1 16.006 19a3 3 0 0 1-1.16-5.77"/><path fill-rule="evenodd" d="M15.985 8.624c2.402-.005 2.688.004 3.637.046.876.038 1.354.183 1.671.306.42.162.72.357 1.037.671s.512.613.676 1.034c.124.316.27.792.311 1.67.046.949.057 1.234.06 3.635.005 2.403-.003 2.689-.045 3.637-.038.877-.183 1.354-.306 1.672-.162.42-.358.72-.672 1.036a2.8 2.8 0 0 1-1.033.676c-.317.123-.794.27-1.67.312-.949.045-1.234.055-3.636.06-2.404.005-2.688-.005-3.637-.046-.877-.038-1.354-.184-1.672-.306a2.8 2.8 0 0 1-1.036-.67 2.8 2.8 0 0 1-.675-1.035c-.123-.317-.271-.793-.312-1.67-.045-.949-.056-1.234-.06-3.636-.006-2.403.003-2.688.045-3.637.037-.876.184-1.354.306-1.671.162-.42.358-.72.672-1.036a2.8 2.8 0 0 1 1.033-.675c.317-.124.794-.272 1.67-.313.95-.045 1.235-.055 3.636-.06m.006 2.755a4.622 4.622 0 1 0 .02 9.244 4.622 4.622 0 0 0-.02-9.244m4.802-1.27a1.08 1.08 0 0 0-1.078 1.08 1.081 1.081 0 0 0 2.14.207 1.08 1.08 0 0 0-1.062-1.288" clip-rule="evenodd"/><path fill-rule="evenodd" d="M16 0c8.837 0 16 7.163 16 16s-7.163 16-16 16S0 24.837 0 16 7.163 0 16 0m-.018 7.001c-2.443.005-2.75.016-3.71.062-.957.046-1.61.199-2.182.423-.592.23-1.094.54-1.593 1.04a4.4 4.4 0 0 0-1.035 1.596c-.222.573-.372 1.228-.414 2.186-.042.957-.052 1.266-.047 3.71s.016 2.75.062 3.71c.046.957.199 1.61.423 2.182a4.4 4.4 0 0 0 1.04 1.593 4.4 4.4 0 0 0 1.597 1.035c.572.221 1.228.372 2.186.414.957.042 1.266.052 3.709.047s2.75-.016 3.71-.061c.96-.046 1.611-.2 2.183-.423a4.4 4.4 0 0 0 1.592-1.04 4.4 4.4 0 0 0 1.035-1.597c.222-.572.372-1.228.413-2.185.042-.96.053-1.267.048-3.71s-.016-2.75-.061-3.71c-.046-.96-.199-1.611-.423-2.183a4.4 4.4 0 0 0-1.04-1.593 4.4 4.4 0 0 0-1.597-1.035c-.573-.222-1.227-.372-2.185-.413-.958-.042-1.267-.053-3.71-.048" clip-rule="evenodd"/></g><defs><clipPath id="64a77bca__a"><path fill="#fff" d="M0 0h32v32H0z"/></clipPath></defs></svg>