<?xml version="1.0" encoding="UTF-8"?><svg width="32" height="32" fill="none" viewBox="0 0 32 32" xmlns="http://www.w3.org/2000/svg"><g clip-path="url(#1ec1552e__a)"><path fill="#0B2237" fill-rule="evenodd" d="M16 0c8.837 0 16 7.163 16 16s-7.163 16-16 16S0 24.837 0 16 7.163 0 16 0m.468 19.09a2.747 2.747 0 0 1-2.74 2.643 2.75 2.75 0 0 1-2.746-2.746 2.75 2.75 0 0 1 2.745-2.745c.283 0 .554.047.81.127v-3.335a6 6 0 0 0-.81-.058 6.02 6.02 0 0 0-6.012 6.011 6.01 6.01 0 0 0 2.567 4.923A6 6 0 0 0 13.727 25a6.02 6.02 0 0 0 6.013-6.013V12.35a7.77 7.77 0 0 0 4.545 1.46v-3.265a4.5 4.5 0 0 1-2.474-.736h-.002A4.55 4.55 0 0 1 19.739 6h-3.266z" clip-rule="evenodd"/></g><defs><clipPath id="1ec1552e__a"><path fill="#fff" d="M0 0h32v32H0z"/></clipPath></defs></svg>