<?xml version="1.0" encoding="UTF-8"?><svg width="48" height="48" viewBox="0 0 48 48" xmlns="http://www.w3.org/2000/svg"><g fill="none" fill-rule="evenodd"><path d="M0 0h48v48H0z"/><path fill="#FFF" d="M24 5.5 41.5 16H46v16h-4.501L24 42.5 6.501 32H2V16h4.5z"/><path fill="#006EC8" d="M14.552 30.999 24 36.668l9.446-5.669h4.861L24 39.584 9.692 30.999zm25.5202-12.7054c1.2157 0 2.4314.2523 3.7634 1.1796l-1.432 2.4362c-.5652-.3768-1.4319-.8798-2.2986-.8798-.4833 0-.7323.2523-.7323.5505v.0312c0 .362.3833.5816 1.4319 1.037 1.7154.739 3.031 1.6663 3.031 3.4586v.0787c0 2.1217-1.6318 3.5208-3.9469 3.5208-1.112 0-2.1518-.2117-3.16-.7096l.1962.5032h-3.6126l-1.232-3.5045-.5161.8962v2.61h-3.2473l-.0009-.0027-3.5428.001-1.3992-3.2685h-.2834V29.5H19.876v-11l3.7633-.0016c1.4991 0 2.6804.362 3.4308 1.0682.6487.6291 1.0157 1.4778 1.0157 2.641v.141c0 1.5875-.6995 2.4837-1.6482 3.0653l1.8783 4.0421.001-10.956 3.2472-.0016v3.8043l1.8153-3.8043h3.4635l-2.3986 4.6365L36.12 27.436l.8721-1.6436c.9322.7077 1.948 1.1796 2.764 1.1796.5832 0 .7995-.2834.7995-.598v-.0164c0-.3768-.349-.5816-1.2157-.9437-1.9988-.8323-3.2473-1.6973-3.2473-3.552v-.0786c0-2.107 1.599-3.4897 3.9796-3.4897m-20.6876.2048v2.7672H15.654v1.3991h3.4144v2.61H15.654v1.4614h3.7961v2.7672h-7.027l.0017-6.3953c-.2912 2.353-2.3012 3.2807-4.227 3.2807h-.4833V29.5H4.5v-11l3.5307-.0016c2.4141 0 4.1276 1.0192 4.394 3.2145L12.423 18.5zM8.0634 21.0755h-.349v2.8295h.349c.6832 0 1.183-.4407 1.183-1.3517v-.1097c0-.9274-.4834-1.368-1.183-1.368m15.6088.0475h-.5833v2.7508h.5669c.6668 0 1.1321-.439 1.1321-1.3205v-.1261c0-.8798-.467-1.3042-1.1157-1.3042M24 8.415l14.306 8.584h-4.859L24 11.331l-9.448 5.668H9.693z"/><path fill="#12395B" fill-rule="nonzero" d="m24 4.3338 17.777 10.666L47 15v18l-5.223-.0002L24 43.6662 6.223 32.9998 1 33V15l5.223-.0002zm0 2.3322L6.775 16.9998 3 17v14l3.777-.0002L24 41.333l17.222-10.3332L45 31V17l-3.777-.0002z"/></g></svg>