<?xml version="1.0" encoding="UTF-8"?><svg width="48" height="48" viewBox="0 0 48 48" xmlns="http://www.w3.org/2000/svg"><g fill="none" fill-rule="evenodd"><path d="M0 0h48v48H0z"/><path fill="#FFF" d="M11 8h2V4h8V2h6l10 6v38H11z"/><path fill="#006EC8" d="M18 33v4h-3v-4zm5 0v4h-3v-4zm5 0v4h-3v-4zm5 0v4h-3v-4zm-15-7v4h-3v-4zm5 0v4h-3v-4zm5 0v4h-3v-4zm5 0v4h-3v-4zm-15-7v4h-3v-4zm5 0v4h-3v-4zm5 0v4h-3v-4zm5 0v4h-3v-4zm-15-7v4h-3v-4zm5 0v4h-3v-4zm5 0v4h-3v-4zm5 0v4h-3v-4z"/><path fill="#12395B" fill-rule="nonzero" d="M27.277 1 38 7.4338V47H10V7h2V3h8V1zm-.554 2H22v6H12v36h7v-3h-2.5v-2h15v2H29v3h7V8.566zM27 42h-6v3h6zM20 5h-6v2h6z"/></g></svg>