<?xml version="1.0" encoding="UTF-8"?><svg width="48" height="48" viewBox="0 0 48 48" xmlns="http://www.w3.org/2000/svg"><g fill="none" fill-rule="evenodd"><path d="M0 0h48v48H0z"/><path fill="#FFF" d="M24 4.4 45 17l-1 6-2-.001V35h2l1 6H34v2H14v-2H3l1-6h2V22.999L4 23l-1-6z"/><path fill="#006EC8" d="M24 28c1.1046 0 2 .8954 2 2v5h-4v-5c0-1.1046.8954-2 2-2m0-20.685 17.807 10.684H6.193zM24 11c-1.3807 0-2.5 1.1193-2.5 2.5S22.6193 16 24 16s2.5-1.1193 2.5-2.5S25.3807 11 24 11"/><path fill="#12395B" fill-rule="nonzero" d="m24 3.2338 22.0983 13.259L44.8471 24l-1.8476-.0002L43 34h1.8471l1.3334 8H35v2H13v-2H1.8195l1.3334-8H5l-.0005-10.0002L3.153 24l-1.2512-7.5072zm16.9995 20.766h-2L39 36h-7l-.0005-12.0002h-2L30 36H18l-.0005-12.0002h-2L16 36H9l-.0005-12.0002h-2L7 36H4.847l-.667 4H15v2h18v-2h10.819l-.667-4H41zM31 38v2H17v-2zM13.9995 23.9998h-3L11 34h3zm14 0h-8L20 34h8zm9 0h-3L34 34h3zM24 5.566 4.098 17.507l.749 4.492h38.305l.749-4.492z"/></g></svg>