<?xml version="1.0" encoding="UTF-8"?>
<svg width="48px" height="48px" viewBox="0 0 48 48" version="1.1" xmlns="http://www.w3.org/2000/svg" xmlns:xlink="http://www.w3.org/1999/xlink">
    <title>illustration-base/mobile-48/literal/illo-dollar+circular-arrows</title>
    <g id="illustration-base/mobile-48/literal/illo-dollar+circular-arrows" stroke="none" stroke-width="1" fill="none" fill-rule="evenodd">
        <path d="M37.4350288,10.5649712 C44.2618106,17.3917529 44.8075693,28.121062 39.0723051,35.5718094 L40.5,37 L40.5,38 L36.8456929,38.000017 C29.3911731,44.8499511 17.791564,44.6616217 10.5649712,37.4350288 C3.73818941,30.6082471 3.19243065,19.878938 8.92769488,12.4281906 L7.5,11 L7.5,10 L11.1553012,9.99906963 C18.609858,3.15006568 30.2087572,3.33869952 37.4350288,10.5649712 Z" id="bg" fill="#FFFFFF"></path>
        <path d="M24,13.5 C29.7989899,13.5 34.5,18.2010101 34.5,24 C34.5,25.0267793 34.3526193,26.0191359 34.0778584,26.9570694 L32.7504664,25.6298191 L29.4988781,28.8795505 L29.5000721,32.9459581 C27.9005223,33.9314753 26.0166542,34.5 24,34.5 C18.2010101,34.5 13.5,29.7989899 13.5,24 C13.5,22.9728565 13.6474853,21.9801601 13.922434,21.0419325 L15.2511969,22.3717299 L18.5,19.1210692 L18.4999279,15.0540419 C20.0994777,14.0685247 21.9833458,13.5 24,13.5 Z M25,16.5 L23,16.5 L22.9999066,18.1404624 C21.3985217,18.5410817 20.3596797,19.7681283 20.3596797,21.4261838 L20.3596797,21.4261838 L20.3596797,21.45961 L20.3645812,21.6698804 C20.4526036,23.5213106 21.7206029,24.2793474 23.7190111,25.0529248 C25.3903203,25.6880223 25.7245822,26.0557103 25.7245822,26.6406685 L25.7245822,26.6406685 L25.7245822,26.6573816 L25.7187243,26.7759993 C25.6564575,27.396054 25.1012822,27.810585 24.2204039,27.810585 C23.0504875,27.810585 22.0978412,27.1754875 21.3123259,26.4902507 L21.3123259,26.4902507 L19.875,28.2785515 L20.113471,28.4912008 C20.9982583,29.2431323 21.9943149,29.6909884 23.0005839,29.8852974 L23.0005839,29.8852974 L23,31.5 L25,31.5 L25.0008256,29.942005 C26.8533369,29.6637267 28.1312674,28.3996984 28.1312674,26.4902507 L28.1312674,26.4902507 L28.1312674,26.4568245 L28.1263817,26.2508026 C28.0450318,24.568344 26.9497804,23.7351618 24.9892061,22.9637883 C23.1674791,22.2116992 22.7663649,21.8941504 22.7663649,21.2256267 L22.7663649,21.2256267 L22.7663649,21.2089136 L22.7723875,21.0983118 C22.8323686,20.5566461 23.3366992,20.189415 24.1201253,20.189415 C25.0226323,20.189415 25.875,20.6740947 26.610376,21.275766 L26.610376,21.275766 L27.9641365,19.4373259 L27.746509,19.2499628 C26.9359541,18.5874499 25.9897387,18.1938708 25.0003948,18.0560068 L25.0003948,18.0560068 L25,16.5 Z" id="shapes" fill="#006EC8"></path>
        <path d="M38.1421356,9.85786438 C44.8942041,16.6099329 45.8665651,27.0988731 40.7650427,34.9133242 L40.5458699,35.2419027 L40.386,35.471 L42.206,37.292 L40.498,39 L37.2288605,39.000808 C29.4676756,45.8583499 17.6570577,45.6608696 10.1291002,38.408367 L9.85786438,38.1421356 C3.10579589,31.3900671 2.1334349,20.9011269 7.2349573,13.0866758 L7.4541301,12.7580973 L7.613,12.528 L5.79221084,10.707 L7.50121084,8.999 L10.7724521,8.99803233 C18.6275255,2.05874678 30.6296287,2.34535746 38.1421356,9.85786438 Z M15,10.999 L8.913,10.999 L10.2558186,12.3422276 L9.72011734,13.0381633 C4.2395534,20.1580266 4.86007452,30.3159186 11.2720779,36.7279221 C17.4374552,42.8932993 26.9626393,43.6511489 33.953993,39.0014708 L31,39 L30.9998208,36.1284696 C25.8423044,39.1094152 19.1900406,38.5293567 14.6142463,34.3882941 L14.3552311,34.1479516 L14.1005051,33.8994949 C9.4177067,29.2166966 8.68711205,21.9363419 12.2061604,16.4512808 L12.395299,16.1642748 L13.0739745,15.1613695 L15,17.087 L15,10.999 Z M14.046007,8.99852922 L17,9 L16.9992859,11.8720468 C22.1569219,8.89052107 28.8096809,9.47040299 33.3857389,13.6116925 L33.6447689,13.8520484 L33.8994949,14.1005051 C38.5822933,18.7833034 39.3128879,26.0636581 35.7938396,31.5487192 L35.604701,31.8357252 L34.9260255,32.8386305 L32.999,30.912 L32.999,36.999 L39.085,36.999 L37.7441814,35.6577724 L38.2798827,34.9618367 C43.7604466,27.8419734 43.1399255,17.6840814 36.7279221,11.2720779 C30.5625448,5.10670072 21.0373607,4.34885114 14.046007,8.99852922 Z M16.999952,14.2509899 L16.9992108,18.5 L15.2922108,20.207 L13.418,18.333 L13.2543659,18.6493089 C11.0865571,22.9949031 11.7490136,28.317324 15.0663512,32.0121607 L15.2914382,32.2560433 L15.5147186,32.4852814 C19.7327146,36.7032774 26.3095513,37.1247767 30.9989795,33.7497792 L30.999,29.499 L32.706,27.792 L34.581,29.666 L34.7456341,29.3506911 C36.9134429,25.0050969 36.2509864,19.682676 32.9336488,15.9878393 L32.7085618,15.7439567 L32.4852814,15.5147186 C28.266965,11.2964022 21.6894496,10.8751593 16.999952,14.2509899 Z" id="strokes" fill="#12395B" fill-rule="nonzero"></path>
        <path d="M24,4 C35.045695,4 44,12.954305 44,24 C44,28.2462992 42.6766736,32.1835189 40.4199281,35.421752 L42.25,37.251 L40.5,39 L37.2282112,39.0008038 C33.7826395,42.041558 29.2813393,43.913714 24.3444894,43.9970929 L24,44 C12.954305,44 4,35.045695 4,24 C4,19.7537008 5.32332638,15.8164811 7.58007193,12.578248 L5.751,10.75 L7.501,8.999 L10.7717888,8.99919619 C14.2173605,5.95844197 18.7186607,4.08628598 23.6555106,4.00290706 Z M15,10.999 L8.913,10.999 L10.2717097,12.35752 C7.60728575,15.4961799 6,19.5603891 6,24 C6,33.9411255 14.0588745,42 24,42 C27.6795971,42 31.1013206,40.8959117 33.9519535,39.0009519 L31,39 L30.999887,36.1271146 C28.940699,37.3182649 26.5499634,38 24,38 C16.2680135,38 10,31.7319865 10,24 C10,20.6651838 11.1659812,17.6026971 13.1125104,15.1979731 L15,17.087 L15,10.999 Z M24,6 C20.3204029,6 16.8986794,7.10408835 14.0480465,8.99904808 L17,9 L17.000113,11.8728854 C19.059301,10.6817351 21.4500366,10 24,10 C31.7319865,10 38,16.2680135 38,24 C38,27.3348162 36.8340188,30.3973029 34.8874896,32.8020269 L33,30.913 L33,37.001 L39.087,37.001 L37.7291438,35.6414745 C40.3930575,32.5029521 42,28.4391368 42,24 C42,14.0588745 33.9411255,6 24,6 Z M24,12 C21.3877078,12 18.9703736,12.8347147 17.0001668,14.2519747 L17,18.5 L15.251,20.25 L13.390131,18.3885575 C12.5472943,19.9788531 12.0515378,21.7813218 12.0037999,23.6950252 L12,24 C12,30.627417 17.372583,36 24,36 C26.6122922,36 29.0296264,35.1652853 30.9998332,33.7480253 L30.999,29.501 L32.75,27.751 L34.609869,29.6114425 C35.4527057,28.0211469 35.9484622,26.2186782 35.9962001,24.3049748 L36,24 C36,17.372583 30.627417,12 24,12 Z" id="Combined-Shape" fill="#12395B" fill-rule="nonzero"></path>
    </g>
</svg>