<?xml version="1.0" encoding="UTF-8"?>
<svg width="48px" height="48px" viewBox="0 0 48 48" version="1.1" xmlns="http://www.w3.org/2000/svg" xmlns:xlink="http://www.w3.org/1999/xlink">
    <title>illustration-base/mobile-48/literal/illo-airplane</title>
    <g id="illustration-base/mobile-48/literal/illo-airplane" stroke="none" stroke-width="1" fill="none" fill-rule="evenodd">
        <path d="M40.9727561,7.03163056 C41.411443,7.47031754 41.5877956,8.10700628 41.4373272,8.70887984 L40.9374341,10.7084524 C40.4978529,12.466777 39.5886651,14.0725758 38.3070769,15.354164 L32.9117388,20.7495021 L34.0425238,25.2742879 L36.0230086,23.2950865 L39.5585425,26.8306204 L35.4575238,30.9312879 L37.1625795,37.752865 C37.332967,38.4344151 37.1332687,39.1553891 36.636508,39.6521498 L34.608795,41.6798628 L27.066087,26.5951539 L26.8306204,26.8306204 L18.8268788,32.5475788 L19.5903473,37.129097 C19.696533,37.766211 19.4884948,38.4153867 19.031773,38.8721085 L17.6382323,40.2656493 L14.8098052,34.608795 L13.3955916,34.608795 L13.3955916,33.1945815 L7.73873734,30.3661543 L9.13227808,28.9726136 C9.58899991,28.5158918 10.2381756,28.3078536 10.8752896,28.4140393 L15.4568079,29.1775078 L21.1737662,21.1737662 L21.4092327,20.9382996 L6.32452378,13.3955916 L8.35223679,11.3678786 C8.84899748,10.8711179 9.56997156,10.6714196 10.2515216,10.8418071 L17.0725238,12.5462879 L21.1737662,8.44584412 L24.7093001,11.981378 L22.7285238,13.9612879 L27.2548845,15.0926479 L32.6502226,9.69730974 C33.9318109,8.41572151 35.5376096,7.50653369 37.2959342,7.06695255 L39.2955068,6.5670594 C39.8973803,6.41659101 40.5340691,6.59294359 40.9727561,7.03163056 Z" id="bg" fill="#FFFFFF"></path>
        <path d="M30.6843524,21.5626749 L34.7855717,37.9675522 L34.1746877,38.5768149 L33,38 L28,28 L27.3400191,24.9070082 L30.6843524,21.5626749 Z M10.0368344,13.2188149 L26.4417117,17.3200342 L23.0973784,20.6643675 L20,20 L10,15 L9.4266877,13.8288149 L10.0368344,13.2188149 Z M38.1443289,9.86005769 C39.216647,10.9323758 39.7000819,12.3705791 39.5946334,13.7728023 C39.2215621,14.3404176 38.7908514,14.8703894 38.3070769,15.354164 L37.4368845,16.2232812 L36.7301154,15.5169119 C37.9016882,14.3453391 37.9016882,12.4458441 36.7301154,11.2742712 C35.6054054,10.1495613 33.8098425,10.1045729 32.6314643,11.1393061 L32.4874747,11.2742712 L31.7808845,10.5662812 L32.6502226,9.69730974 C33.1351402,9.21239219 33.6664735,8.78078957 34.2349226,8.40776756 C35.6361564,8.30509476 37.0728866,8.78861532 38.1443289,9.86005769 Z" id="shapes" fill="#006EC8"></path>
        <path d="M39.0529712,5.5969169 C39.9956197,5.36125476 40.9927955,5.63745646 41.6798628,6.32452378 C42.3669302,7.0115911 42.6431319,8.00876688 42.4074697,8.95141547 L42.4074697,8.95141547 L41.9075766,10.9509881 C41.4240373,12.8851451 40.4239307,14.6515237 39.0141837,16.0612708 L39.0141837,16.0612708 L34.018,21.056 L34.5833781,23.3192667 L36.0230086,21.880873 L40.9727561,26.8306204 L36.5633781,31.2382667 L38.132722,37.5103294 C38.3563556,38.4048638 38.1549688,39.3446743 37.6019416,40.0648361 L37.4780802,40.215698 L37.3436148,40.3592566 L34.3348629,43.3680085 L26.719,28.138 L19.916,32.998 L20.5767412,36.964698 C20.7254012,37.8566576 20.4634753,38.7643778 19.8708935,39.4384406 L19.8708935,39.4384406 L19.7388798,39.5792153 L17.3642808,41.9538143 L14.191,35.608 L12.3955916,35.608795 L12.395,33.812 L6.05057231,30.6401058 L8.4251713,28.2655068 C9.11025404,27.5804241 10.0840176,27.2683669 11.0396639,27.4276413 L11.0396639,27.4276413 L15.006,28.088 L19.866,21.284 L4.63637813,13.6695237 L7.64513001,10.6607718 C8.39027104,9.91563076 9.47173216,9.61608337 10.4940572,9.87166464 L10.4940572,9.87166464 L16.7653781,11.4392667 L21.1737662,7.03163056 L26.1235137,11.981378 L24.6843781,13.4192667 L26.947,13.985 L31.9431158,8.99020296 C33.2647537,7.66856509 34.8998373,6.70696279 36.6927564,6.19350108 L36.6927564,6.19350108 L37.0533986,6.09681005 Z M40.1791249,7.66422646 C39.9967361,7.52946601 39.7618412,7.48125222 39.5380424,7.5372019 L39.5380424,7.5372019 L37.5384698,8.03709505 C35.9559777,8.43271807 34.5107588,9.25098711 33.3573294,10.4044165 L33.3573294,10.4044165 L27.5616342,16.2001117 L10.008986,11.8119496 C9.66821096,11.7267559 9.30772392,11.826605 9.05934357,12.0749854 L9.05934357,12.0749854 L8.012,13.121 L23.0973784,20.6643675 L21.941,21.819 L15.9078847,30.2664652 L10.7108906,29.4004332 C10.3923336,29.3473404 10.0677458,29.4513595 9.83938486,29.6797204 L9.83938486,29.6797204 L9.426,30.092 L14.3955916,32.5765475 L14.395,33.608 L15.4278391,33.608795 L17.912,38.577 L18.3246662,38.1650018 C18.524482,37.965186 18.6290986,37.6916964 18.6165598,37.4130213 L18.6165598,37.4130213 L18.6039493,37.2934713 L17.7379214,32.0965019 L26.183,26.063 L27.3400191,24.9070082 L34.882,39.991 L35.9294013,38.945043 C36.1467341,38.7277102 36.2503476,38.4245458 36.2157821,38.1238578 L36.2157821,38.1238578 L36.192437,37.9954006 L31.8042749,20.4427524 L37.5999701,14.6470572 C38.7533995,13.4936278 39.5716685,12.0484089 39.9672916,10.4659168 L39.9672916,10.4659168 L40.4671847,8.46634422 C40.5324593,8.20524567 40.4559559,7.92904397 40.2656493,7.73873734 L40.2656493,7.73873734 Z M36.0227352,24.7094235 L35.1493781,25.5822667 L35.9983781,28.9752667 L38.1440556,26.8307439 L36.0227352,24.7094235 Z M21.1734928,9.86018114 L19.0283781,12.0042667 L22.4223781,12.8532667 L23.2948131,11.9815015 L21.1734928,9.86018114 Z" id="strokes" fill="#12395B" fill-rule="nonzero"></path>
    </g>
</svg>