<?xml version="1.0" encoding="UTF-8"?>
<svg width="48px" height="48px" viewBox="0 0 48 48" version="1.1" xmlns="http://www.w3.org/2000/svg" xmlns:xlink="http://www.w3.org/1999/xlink">
    <title>illustration-base/mobile-48/literal/illo-earth</title>
    <g id="illustration-base/mobile-48/literal/illo-earth" stroke="none" stroke-width="1" fill="none" fill-rule="evenodd">
        <circle id="bg" fill="#FFFFFF" cx="24" cy="24" r="19"></circle>
        <path d="M25.0524266,7.5330221 C27.1681656,7.66619853 29.1757018,8.19811197 31.0007457,9.05447304 L31,12.5 L27.379,12.5 L23.737,15.738 L24.8944272,18.0527864 L23.1055728,18.9472136 L21.881,16.5 L18.117,16.5 L17.5268827,17.6823025 C17.3602009,18.0156661 17.4023355,18.4113614 17.6259024,18.7006399 L17.7071068,18.7928932 L18.4142136,19.5 L19.7786548,19.4998932 L20.0513167,18.6837722 L21.9486833,19.3162278 L21.644,20.229 L23.915,22.5 L29.276984,22.5 L37.8085609,27.6189462 L35.8218544,31.5923591 L27.2317691,40.1836398 C26.5040422,40.3281507 25.7590818,40.4248024 25.0003062,40.4701766 L25,36.8377223 L26.5439788,32.2057858 C26.6798431,31.7981931 26.5394972,31.3542298 26.205593,31.0973246 L26.1097913,31.0320652 L23.5,29.4661904 L23.5,26.0857864 L25,24.584 L24.9996548,24.4998932 L23.0857864,24.5 L20.0856548,21.4998932 L18.276984,21.5 C17.9749107,21.5 17.6775702,21.4315863 17.4069686,21.3008544 L17.2479925,21.2149859 L13.1199188,18.7381417 C12.5672471,18.4065386 12.1377425,17.9068479 11.8922779,17.3149547 L11.8173562,17.1143462 L10.8079832,14.0877747 C13.4466408,10.5816005 17.4506098,8.16119481 22.03007,7.61637782 L23.499,9.085 Z M29,19 L29,21 L25,21 L25,19 L29,19 Z" id="shapes" fill="#006EC8"></path>
        <path d="M24,4 C12.954305,4 4,12.954305 4,24 C4,35.045695 12.954305,44 24,44 C35.045695,44 44,35.045695 44,24 C44,12.954305 35.045695,4 24,4 Z M24,6 C33.9411255,6 42,14.0588745 42,24 C42,33.9411255 33.9411255,42 24,42 C14.0588745,42 6,33.9411255 6,24 C6,14.0588745 14.0588745,6 24,6 Z" id="strokes" fill="#12395B" fill-rule="nonzero"></path>
    </g>
</svg>